<svg xmlns="http://www.w3.org/2000/svg" viewBox="0 0 960 960"><defs><style>.cls-1{fill:#fff;}</style></defs><title>icono</title><g id="Capa_2" data-name="Capa 2"><circle class="cls-1" cx="480" cy="480" r="480"/></g><g id="Capa_1" data-name="Capa 1"><path d="M700.49,533.67c5,8.84,10.66,17.41,15,26.59,6.71,14.21,17.08,20.42,32.74,18,9.66-1.52,19.6-1.7,29-4,7.63-1.84,14.71-5.91,22.3-9.11.1.65-.3,4.58,1.28,7.41,2.62,4.7,6.51,8.71,9.86,13,4.52-4.67,12.56-9.11,12.87-14,.88-14-1.4-28.21-2.24-39.63,9.2,14.53,11.49,33.07,3.06,52.09-6,13.66-20.5,11.11-28.14,6-12.27-8.14-23.68-5.43-35.78-4.41-12.46,1-25.74.26-37.1,4.47-16.83,6.25-32.21,16.34-48.32,24.57-62.7,32-169.26,46.33-231.46,30.59,73,6.2,144.07-.29,210.89-31.38-29.45-31.34-68.22-20.45-103.44-24.25-18.06-2-36.18-1.61-54,7.44-18.05,9.17-38.11-5.23-58-29.11-15,16-47,23-67.92,14.82-1.5-.59-3.79-.94-4.3-2-10.52-23-30.77-14.22-48.05-14.78-10.73-.35-21.48-.06-32.58-.06,22.12,37.1,98.2,60.5,215.35,66.74-75.92,14.48-168.47-11.82-233.27-66.27-25.3,16.94-62.14,21-75.34,8.39-16.67-16-28.23-56.5-19.84-69.6.88.45,2.41.75,2.56,1.38,7.65,32.21,31.08,40.33,60.34,39.92,13.6-.19,27.23.74,40.78,0,6.81-.39,16.05-1.27,19.75-5.66,14.37-17.09,32.56-14.61,51-13.1,2.61.22,5.26,0,8.95-2.82l-16.17-8.22c8.23,0,14.65-.46,21,.09C376.15,518,389,519.53,397.5,501.4c6.64-14.19,24.15-13.2,31.14,1.21,6.68,13.77,10.66,29.39,12.92,44.63,3,20.07,7.63,23.45,27.27,19.3,34.85-7.36,69-6.39,101,12.75,5.16,3.09,13,2.62,19.52,2.33,9.13-.4,18.19-3.06,27.3-3.16,16.24-.19,17.67-2,10.46-18.35,4.51-.4,8.77-1.28,13-1.08,14.43.71,22.91-4.29,26.47-19.8,1.59-6.88,9.76-14.62,16.67-17.05,4.39-1.54,12,6,18.11,9.42-9.26-5.63-18.26-8.43-24.21,4.08-8.86,18.66-8.88,37.9-.3,56.36,2.25,4.85,9.6,9.7,14.87,10,3.68.21,9.6-6.65,11.41-11.51C710.18,571.45,708.16,552.32,700.49,533.67ZM420.08,577.76c18.13-14.23,21.14-57.37,5.22-73.28-7-7-13.29-6-19.12,1.23C390.15,525.55,397.83,565.15,420.08,577.76Z" transform="translate(-20 -20)"/><path d="M489.81,393.48c1.73,12.68,3.46,25.36,5.34,39.21H414.7C427.2,412,436.91,393.55,449.1,377c3.76-5.12,15.16-8.71,21.56-7.08,30.94,7.86,61.75,16.66,91.81,27.35,15.81,5.62,20.47,17.64,24.74,46.07-25.58-2.73-50.84-5.09-76-8.53-3-.41-6-6.44-7.5-10.43-3.94-10.46-7.05-21.24-10.49-31.89Z" transform="translate(-20 -20)"/><path d="M235.75,427.94c91.07-74.28,197-85.76,308.49-72.66-44.9-2.82-90-4.35-134.56,8.39l21.74,1.46c-11.58,16.23-21.52,31.6-33.14,45.56-3.3,4-11.44,5-17.48,5.36-39,2.4-78.1,4-117.12,6.47C254.21,423.12,244.89,426.1,235.75,427.94Z" transform="translate(-20 -20)"/><path d="M552.46,477.22,580,460l-7.25-2.28c45.12-9.17,93.37-18.07,142.33-5.29a14.6,14.6,0,0,1-.5,2.29c-12.9,29-33.22,33.84-64.18,28.19-31.37-5.72-64.6-1.26-97-1.26C553.05,480.16,552.75,478.69,552.46,477.22Z" transform="translate(-20 -20)"/><path d="M707.89,494.35c5.58-27.66,14.64-36.44,40.34-38.51-12.32-27.34-32.84-46.14-57-61.1-68-42.18-143.23-54.92-221.9-52.45-9.19.29-18.36,1.09-27.56,1.23,66.2-12.65,177.59-5.28,250.82,40.32,30.44,19,56.5,41.92,69.94,77,3.57,9.31,13,16.39,20.67,25.69Z" transform="translate(-20 -20)"/><path d="M375.32,457.75c-2.54,17.75-8.43,27.76-28.67,25.28-10.94-1.34-22.77,4.5-34.91,7.26C322.07,465.31,345.8,453.24,375.32,457.75Z" transform="translate(-20 -20)"/><path d="M566,532.71c17.2-20.12,38.79-27.09,64.52-22C612.68,528.29,587.24,524.9,566,532.71Z" transform="translate(-20 -20)"/><path d="M229.63,505.92c45.22-3.13,59.12-12.22,56.52-38l17.1,1.41C301.94,499.23,266.47,516,229.63,505.92Z" transform="translate(-20 -20)"/><path d="M525.46,524.72l-24.75-1.78c0-.79,0-1.57-.08-2.35,9.07,0,18.14.26,27.19-.07,9.49-.36,18.95-1.28,29.86-2.06-18.61,27.93-44.88,26.63-74.69,23.77C498.74,537,517.36,545.63,525.46,524.72Z" transform="translate(-20 -20)"/><path d="M184.2,465.24l15.32,32.66C174.44,489.08,172.31,484.57,184.2,465.24Z" transform="translate(-20 -20)"/></g></svg>