<svg id="Capa_1" data-name="Capa 1" xmlns="http://www.w3.org/2000/svg" viewBox="0 0 976.46 464.56"><title>logo</title><path d="M796.94,552.35c7.48,13.1,15.8,25.8,22.22,39.39,10,21,25.3,30.24,48.5,26.59,14.3-2.25,29-2.52,43-5.9,11.29-2.72,21.78-8.76,33-13.49.14,1-.45,6.78,1.88,11,3.89,7,9.65,12.9,14.62,19.27,6.69-6.91,18.6-13.49,19.06-20.79,1.3-20.75-2.07-41.79-3.31-58.7,13.61,21.52,17,49,4.53,77.15-9,20.23-30.38,16.46-41.68,9-18.18-12.06-35.07-8-53-6.53-18.45,1.54-38.12.38-54.95,6.63-24.92,9.25-47.71,24.18-71.57,36.37-92.86,47.44-250.68,68.64-342.81,45.32,108.18,9.18,213.39-.44,312.35-46.48-43.63-46.41-101.05-30.29-153.2-35.92-26.76-2.89-53.59-2.38-80,11-26.72,13.57-56.44-7.76-85.83-43.12-22.23,23.66-69.63,34-100.59,21.95-2.24-.87-5.63-1.4-6.38-3-15.57-34-45.58-21.06-71.16-21.89-15.9-.51-31.82-.09-48.26-.09,32.77,54.94,145.45,89.6,319,98.85-112.44,21.44-249.51-17.5-345.49-98.15-37.48,25.08-92,31.16-111.59,12.43C20.61,589.52,3.5,529.47,15.92,510.08c1.31.66,3.56,1.1,3.78,2,11.34,47.7,46,59.74,89.38,59.13,20.14-.28,40.33,1.1,60.4,0,10.09-.57,23.77-1.87,29.25-8.39C220,537.52,247,541.19,274.3,543.43c3.87.32,7.78,0,13.25-4.18L263.6,527.07c12.19,0,21.69-.68,31.07.13,21.89,1.89,40.93,4.22,53.51-22.64,9.84-21,35.77-19.55,46.13,1.79,9.89,20.4,15.79,43.54,19.14,66.11,4.4,29.72,11.3,34.72,40.39,28.58,51.61-10.9,102.17-9.46,149.52,18.88,7.65,4.58,19.24,3.88,28.91,3.46,13.52-.6,26.94-4.53,40.44-4.69,24.06-.28,26.17-2.94,15.49-27.17,6.68-.6,13-1.9,19.24-1.6,21.38,1,33.94-6.36,39.21-29.33,2.34-10.19,14.46-21.65,24.69-25.25,6.5-2.28,17.71,8.84,26.81,13.95-13.7-8.34-27-12.49-35.85,6.05-13.13,27.63-13.15,56.12-.45,83.46,3.34,7.2,14.23,14.37,22,14.82,5.45.31,14.22-9.85,16.9-17.06C811.3,608.31,808.3,580,796.94,552.35ZM381.63,617.66c26.85-21.08,31.31-85,7.73-108.54-10.35-10.34-19.69-8.86-28.32,1.82C337.3,540.33,348.67,599,381.63,617.66Z" transform="translate(-11.77 -262.55)"/><path d="M484.91,344.71c2.56,18.79,5.12,37.57,7.91,58.08H373.67c18.51-30.72,32.89-58,50.94-82.51,5.57-7.58,22.46-12.89,31.94-10.48,45.82,11.64,91.45,24.67,136,40.5,23.41,8.33,30.31,26.13,36.64,68.24-37.89-4-75.31-7.54-112.51-12.64-4.4-.61-8.89-9.53-11.11-15.44C499.71,375,495.11,359,490,343.23Z" transform="translate(-11.77 -262.55)"/><path d="M108.62,395.76c134.89-110,291.76-127,456.9-107.61C499,284,432.24,281.71,366.23,300.57l32.2,2.16c-17.15,24-31.87,46.81-49.09,67.49-4.88,5.85-16.93,7.37-25.88,7.93-57.8,3.55-115.68,5.9-173.47,9.58C136,388.62,122.16,393,108.62,395.76Z" transform="translate(-11.77 -262.55)"/><path d="M577.7,468.75l40.72-25.53-10.75-3.38C674.5,426.25,746,413.08,818.48,432a22.53,22.53,0,0,1-.74,3.39c-19.11,42.89-49.21,50.12-95.06,41.76-46.46-8.48-95.67-1.87-143.68-1.87C578.57,473.1,578.14,470.93,577.7,468.75Z" transform="translate(-11.77 -262.55)"/><path d="M807.91,494.12c8.27-41,21.67-54,59.74-57-18.25-40.5-48.64-68.35-84.37-90.5-100.76-62.47-212.13-81.35-328.65-77.69-13.61.43-27.19,1.62-40.82,1.82,98.05-18.73,263-7.82,371.49,59.72,45.09,28.08,83.68,62.1,103.59,114.06,5.29,13.8,19.21,24.28,30.62,38.05Z" transform="translate(-11.77 -262.55)"/><path d="M315.33,439.92c-3.75,26.28-12.47,41.11-42.45,37.43-16.21-2-33.72,6.67-51.71,10.76C236.47,451.11,271.62,433.23,315.33,439.92Z" transform="translate(-11.77 -262.55)"/><path d="M597.76,550.94c25.47-29.81,57.44-40.12,95.55-32.58C666.89,544.39,629.21,539.36,597.76,550.94Z" transform="translate(-11.77 -262.55)"/><path d="M99.55,511.26c67-4.64,87.57-18.1,83.72-56.3L208.59,457C206.65,501.35,154.13,526.2,99.55,511.26Z" transform="translate(-11.77 -262.55)"/><path d="M537.71,539.11l-36.66-2.65c0-1.16-.08-2.32-.11-3.48,13.42,0,26.86.39,40.26-.11,14-.52,28.08-1.89,44.22-3C557.87,571.19,519,569.26,474.81,565,498.13,557.25,525.72,570.06,537.71,539.11Z" transform="translate(-11.77 -262.55)"/><path d="M32.27,451,55,499.38C17.81,486.32,14.65,479.63,32.27,451Z" transform="translate(-11.77 -262.55)"/></svg>