<svg id="Capa_1" data-name="Capa 1" xmlns="http://www.w3.org/2000/svg" viewBox="0 0 978 465.29"><defs><style>.cls-1{fill:#fff;}</style></defs><title>w-logo</title><path class="cls-1" d="M797.41,552.44c7.49,13.12,15.82,25.84,22.25,39.45,10,21.08,25.34,30.29,48.57,26.63,14.34-2.25,29.08-2.52,43.1-5.9,11.31-2.73,21.81-8.77,33.08-13.52.14,1-.45,6.79,1.89,11,3.89,7,9.66,12.92,14.64,19.3,6.69-6.92,18.63-13.51,19.08-20.82,1.31-20.78-2.07-41.86-3.31-58.8,13.63,21.56,17,49.06,4.53,77.28-9,20.26-30.42,16.48-41.74,9-18.21-12.08-35.13-8-53.08-6.54-18.48,1.55-38.18.38-55,6.64-25,9.27-47.78,24.22-71.68,36.43-93,47.52-251.07,68.74-343.35,45.39,108.35,9.19,213.72-.44,312.84-46.55-43.69-46.49-101.21-30.34-153.44-36-26.8-2.89-53.67-2.39-80.1,11-26.77,13.6-56.54-7.76-86-43.18-22.26,23.69-69.74,34.06-100.75,22-2.24-.87-5.64-1.39-6.39-3-15.6-34.11-45.65-21.09-71.27-21.92-15.93-.52-31.88-.1-48.34-.1,32.82,55,145.68,89.75,319.46,99-112.62,21.47-249.91-17.53-346-98.3C118.81,626,64.18,632.11,44.58,613.34,19.86,589.67,2.72,529.53,15.16,510.1c1.31.66,3.57,1.11,3.79,2,11.35,47.79,46.1,59.84,89.52,59.23,20.16-.28,40.39,1.1,60.49,0,10.11-.57,23.81-1.88,29.3-8.4,21.32-25.34,48.29-21.67,75.69-19.42,3.87.31,7.79,0,13.27-4.2l-24-12.19c12.22,0,21.74-.68,31.12.13,21.93,1.9,41,4.23,53.6-22.67,9.86-21.06,35.83-19.59,46.2,1.79,9.91,20.43,15.82,43.6,19.17,66.21,4.41,29.77,11.32,34.78,40.46,28.63,51.69-10.92,102.33-9.48,149.75,18.91,7.66,4.58,19.27,3.88,29,3.46,13.54-.6,27-4.54,40.5-4.69,24.1-.29,26.21-2.95,15.52-27.22,6.68-.6,13-1.9,19.27-1.6,21.41,1,34-6.37,39.27-29.37,2.35-10.21,14.48-21.69,24.73-25.3,6.51-2.28,17.74,8.86,26.85,14-13.72-8.36-27.08-12.52-35.9,6-13.15,27.68-13.17,56.21-.46,83.6,3.35,7.2,14.25,14.39,22.07,14.84,5.46.32,14.24-9.87,16.93-17.08C811.79,608.49,808.79,580.11,797.41,552.44Zm-416,65.42c26.89-21.12,31.36-85.11,7.74-108.72-10.36-10.36-19.71-8.87-28.36,1.83C337,540.4,348.43,599.14,381.44,617.86Z" transform="translate(-11 -262.18)"/><path class="cls-1" d="M484.88,344.48c2.57,18.81,5.13,37.62,7.93,58.17H373.47c18.54-30.77,32.94-58.06,51-82.65,5.58-7.58,22.49-12.91,32-10.49,45.89,11.66,91.59,24.71,136.19,40.57,23.45,8.33,30.36,26.17,36.7,68.34-37.94-4.05-75.42-7.55-112.68-12.66-4.41-.61-8.9-9.55-11.13-15.46C499.71,374.78,495.1,358.79,490,343Z" transform="translate(-11 -262.18)"/><path class="cls-1" d="M108,395.6C243.1,285.41,400.23,268.39,565.62,287.82,499,283.63,432.13,281.37,366,300.26l32.25,2.16c-17.18,24.09-31.92,46.89-49.17,67.6-4.88,5.87-17,7.39-25.92,7.94-57.89,3.56-115.86,5.91-173.74,9.6C135.39,388.46,121.56,392.88,108,395.6Z" transform="translate(-11 -262.18)"/><path class="cls-1" d="M577.82,468.71l40.78-25.57-10.76-3.38C674.78,426.14,746.35,413,819,431.9a22.37,22.37,0,0,1-.75,3.4C799.1,478.25,769,485.49,723,477.12c-46.53-8.49-95.82-1.88-143.9-1.88C578.69,473.07,578.26,470.89,577.82,468.71Z" transform="translate(-11 -262.18)"/><path class="cls-1" d="M808.39,494.12c8.28-41,21.71-54.05,59.84-57.12-18.28-40.57-48.72-68.45-84.5-90.64-100.92-62.57-212.47-81.48-329.17-77.81-13.63.43-27.24,1.62-40.89,1.82,98.21-18.76,263.45-7.84,372.08,59.81,45.16,28.12,83.81,62.2,103.76,114.24,5.29,13.82,19.23,24.32,30.66,38.11Z" transform="translate(-11 -262.18)"/><path class="cls-1" d="M315,439.83c-3.76,26.32-12.49,41.18-42.52,37.49-16.23-2-33.77,6.68-51.79,10.78C236.06,451,271.26,433.13,315,439.83Z" transform="translate(-11 -262.18)"/><path class="cls-1" d="M597.91,551c25.52-29.86,57.54-40.19,95.71-32.63C667.15,544.46,629.41,539.43,597.91,551Z" transform="translate(-11 -262.18)"/><path class="cls-1" d="M98.92,511.29c67.08-4.66,87.71-18.13,83.85-56.39L208.13,457C206.19,501.36,153.58,526.25,98.92,511.29Z" transform="translate(-11 -262.18)"/><path class="cls-1" d="M537.77,539.18l-36.72-2.66c0-1.16-.07-2.32-.11-3.48,13.44,0,26.9.39,40.33-.11,14.07-.52,28.11-1.9,44.29-3C558,571.31,519,569.38,474.77,565.15,498.13,557.35,525.76,570.18,537.77,539.18Z" transform="translate(-11 -262.18)"/><path class="cls-1" d="M31.54,450.93l22.73,48.46C17.05,486.31,13.89,479.6,31.54,450.93Z" transform="translate(-11 -262.18)"/></svg>